<mxfile host="app.diagrams.net" modified="2024-04-19T09:52:22.886Z" agent="Mozilla/5.0 (Windows NT 10.0; Win64; x64) AppleWebKit/537.36 (KHTML, like Gecko) Chrome/123.0.0.0 Safari/537.36 Edg/123.0.0.0" etag="ipFR12bdZEq5dMM64eR0" version="24.2.5" type="github">
  <diagram name="第 1 页" id="otzXFB9lIOkvXkMtDlbL">
    <mxGraphModel dx="2503" dy="2218" grid="1" gridSize="10" guides="1" tooltips="1" connect="1" arrows="1" fold="1" page="1" pageScale="1" pageWidth="827" pageHeight="1169" math="0" shadow="0">
      <root>
        <mxCell id="0" />
        <mxCell id="1" parent="0" />
        <mxCell id="LO9hTs_cn3nxpXgWKbTW-1" value="" style="rounded=1;whiteSpace=wrap;html=1;dashed=1;" vertex="1" parent="1">
          <mxGeometry x="-380" y="30" width="240" height="130" as="geometry" />
        </mxCell>
        <mxCell id="LO9hTs_cn3nxpXgWKbTW-2" value="Q3" style="shape=step;perimeter=stepPerimeter;whiteSpace=wrap;html=1;fixedSize=1;" vertex="1" parent="1">
          <mxGeometry x="80" y="180" width="240" height="40" as="geometry" />
        </mxCell>
        <mxCell id="LO9hTs_cn3nxpXgWKbTW-3" value="Q4" style="shape=step;perimeter=stepPerimeter;whiteSpace=wrap;html=1;fixedSize=1;" vertex="1" parent="1">
          <mxGeometry x="310" y="180" width="240" height="40" as="geometry" />
        </mxCell>
        <mxCell id="LO9hTs_cn3nxpXgWKbTW-4" value="Q2" style="shape=step;perimeter=stepPerimeter;whiteSpace=wrap;html=1;fixedSize=1;" vertex="1" parent="1">
          <mxGeometry x="-150" y="180" width="240" height="40" as="geometry" />
        </mxCell>
        <mxCell id="LO9hTs_cn3nxpXgWKbTW-5" value="Q1" style="shape=step;perimeter=stepPerimeter;whiteSpace=wrap;html=1;fixedSize=1;" vertex="1" parent="1">
          <mxGeometry x="-380" y="180" width="240" height="40" as="geometry" />
        </mxCell>
        <mxCell id="LO9hTs_cn3nxpXgWKbTW-6" value="" style="verticalLabelPosition=bottom;verticalAlign=top;html=1;shape=mxgraph.basic.patternFillRect;fillStyle=diag;step=5;fillStrokeWidth=0.2;fillStrokeColor=#dddddd;" vertex="1" parent="1">
          <mxGeometry x="-580" y="30" width="180" height="130" as="geometry" />
        </mxCell>
        <mxCell id="LO9hTs_cn3nxpXgWKbTW-7" value="" style="verticalLabelPosition=bottom;verticalAlign=top;html=1;shape=mxgraph.basic.patternFillRect;fillStyle=diag;step=5;fillStrokeWidth=0.2;fillStrokeColor=#dddddd;" vertex="1" parent="1">
          <mxGeometry x="-580" y="240" width="180" height="130" as="geometry" />
        </mxCell>
        <mxCell id="LO9hTs_cn3nxpXgWKbTW-10" value="" style="verticalLabelPosition=bottom;verticalAlign=top;html=1;shape=mxgraph.basic.patternFillRect;fillStyle=diag;step=5;fillStrokeWidth=0.2;fillStrokeColor=#dddddd;" vertex="1" parent="1">
          <mxGeometry x="-580" y="430" width="180" height="130" as="geometry" />
        </mxCell>
        <mxCell id="LO9hTs_cn3nxpXgWKbTW-11" value="" style="rounded=1;whiteSpace=wrap;html=1;dashed=1;" vertex="1" parent="1">
          <mxGeometry x="-380" y="240" width="950" height="130" as="geometry" />
        </mxCell>
        <mxCell id="LO9hTs_cn3nxpXgWKbTW-12" value="" style="rounded=1;whiteSpace=wrap;html=1;dashed=1;" vertex="1" parent="1">
          <mxGeometry x="-370" y="430" width="950" height="130" as="geometry" />
        </mxCell>
        <mxCell id="LO9hTs_cn3nxpXgWKbTW-13" value="" style="group" vertex="1" connectable="0" parent="1">
          <mxGeometry x="-630" y="400" width="1290" height="190" as="geometry" />
        </mxCell>
        <mxCell id="LO9hTs_cn3nxpXgWKbTW-8" value="" style="line;strokeWidth=2;html=1;dashed=1;" vertex="1" parent="LO9hTs_cn3nxpXgWKbTW-13">
          <mxGeometry width="1290" height="10" as="geometry" />
        </mxCell>
        <mxCell id="LO9hTs_cn3nxpXgWKbTW-9" value="" style="line;strokeWidth=2;html=1;dashed=1;" vertex="1" parent="LO9hTs_cn3nxpXgWKbTW-13">
          <mxGeometry y="180" width="1290" height="10" as="geometry" />
        </mxCell>
        <mxCell id="LO9hTs_cn3nxpXgWKbTW-17" value="Icon" style="icon;html=1;image=img/clipart/Gear_128x128.png" vertex="1" parent="1">
          <mxGeometry x="60" y="-30" width="60" height="60" as="geometry" />
        </mxCell>
        <mxCell id="LO9hTs_cn3nxpXgWKbTW-18" value="Label" style="label;whiteSpace=wrap;html=1;image=img/clipart/Gear_128x128.png" vertex="1" parent="1">
          <mxGeometry x="-280" y="-150" width="140" height="60" as="geometry" />
        </mxCell>
        <mxCell id="LO9hTs_cn3nxpXgWKbTW-19" value="Label" style="label;whiteSpace=wrap;html=1;align=center;verticalAlign=bottom;spacingLeft=0;spacingBottom=4;imageAlign=center;imageVerticalAlign=top;image=img/clipart/Gear_128x128.png" vertex="1" parent="1">
          <mxGeometry x="150" y="-170" width="120" height="80" as="geometry" />
        </mxCell>
        <mxCell id="LO9hTs_cn3nxpXgWKbTW-20" value="" style="ellipse;whiteSpace=wrap;html=1;strokeWidth=2;fillWeight=2;hachureGap=8;fillColor=#990000;fillStyle=dots;sketch=1;" vertex="1" parent="1">
          <mxGeometry x="-600" y="-110" width="120" height="60" as="geometry" />
        </mxCell>
        <mxCell id="LO9hTs_cn3nxpXgWKbTW-21" value="" style="rounded=1;whiteSpace=wrap;html=1;strokeWidth=2;fillWeight=4;hachureGap=8;hachureAngle=45;fillColor=#1ba1e2;sketch=1;" vertex="1" parent="1">
          <mxGeometry x="-370" y="-90" width="120" height="60" as="geometry" />
        </mxCell>
        <mxCell id="LO9hTs_cn3nxpXgWKbTW-22" value="" style="rhombus;whiteSpace=wrap;html=1;strokeWidth=2;fillWeight=-1;hachureGap=8;fillStyle=cross-hatch;fillColor=#006600;sketch=1;" vertex="1" parent="1">
          <mxGeometry x="-490" y="-210" width="120" height="60" as="geometry" />
        </mxCell>
      </root>
    </mxGraphModel>
  </diagram>
</mxfile>
